<mxfile host="app.diagrams.net" agent="Mozilla/5.0 (Windows NT 10.0; Win64; x64) AppleWebKit/537.36 (KHTML, like Gecko) Chrome/128.0.0.0 Safari/537.36" version="24.7.7">
  <diagram name="Page-1" id="i3YU8BJ7VluizcSLzIkG">
    <mxGraphModel dx="794" dy="446" grid="1" gridSize="10" guides="1" tooltips="1" connect="1" arrows="1" fold="1" page="1" pageScale="1" pageWidth="827" pageHeight="1169" math="0" shadow="0">
      <root>
        <mxCell id="0" />
        <mxCell id="1" parent="0" />
        <mxCell id="E-yTpb4soP6AigzwNsI6-1" value="On-Premise" style="sketch=0;outlineConnect=0;gradientColor=none;html=1;whiteSpace=wrap;fontSize=12;fontStyle=0;shape=mxgraph.aws4.group;grIcon=mxgraph.aws4.group_on_premise;strokeColor=#858B94;fillColor=none;verticalAlign=top;align=left;spacingLeft=30;fontColor=#858B94;dashed=0;" vertex="1" parent="1">
          <mxGeometry x="40" y="80" width="200" height="280" as="geometry" />
        </mxCell>
        <mxCell id="E-yTpb4soP6AigzwNsI6-2" value="AWS&lt;div&gt;&lt;br&gt;&lt;/div&gt;" style="sketch=0;outlineConnect=0;gradientColor=none;html=1;whiteSpace=wrap;fontSize=12;fontStyle=0;shape=mxgraph.aws4.group;grIcon=mxgraph.aws4.group_on_premise;strokeColor=#858B94;fillColor=none;verticalAlign=top;align=left;spacingLeft=30;fontColor=#858B94;dashed=0;" vertex="1" parent="1">
          <mxGeometry x="320" y="80" width="480" height="280" as="geometry" />
        </mxCell>
        <mxCell id="E-yTpb4soP6AigzwNsI6-3" value="" style="sketch=0;outlineConnect=0;fontColor=#232F3E;gradientColor=none;fillColor=#ED7100;strokeColor=none;dashed=0;verticalLabelPosition=bottom;verticalAlign=top;align=center;html=1;fontSize=12;fontStyle=0;aspect=fixed;pointerEvents=1;shape=mxgraph.aws4.inferentia;" vertex="1" parent="1">
          <mxGeometry x="700" y="195" width="70" height="70" as="geometry" />
        </mxCell>
        <mxCell id="E-yTpb4soP6AigzwNsI6-4" value="" style="sketch=0;pointerEvents=1;shadow=0;dashed=0;html=1;strokeColor=none;fillColor=#505050;labelPosition=center;verticalLabelPosition=bottom;verticalAlign=top;outlineConnect=0;align=center;shape=mxgraph.office.servers.exchange_client_access_server;" vertex="1" parent="1">
          <mxGeometry x="60" y="182.5" width="60" height="65" as="geometry" />
        </mxCell>
        <mxCell id="E-yTpb4soP6AigzwNsI6-5" value="Export Image" style="sketch=0;outlineConnect=0;fontColor=#232F3E;gradientColor=none;strokeColor=#232F3E;fillColor=#ffffff;dashed=0;verticalLabelPosition=bottom;verticalAlign=top;align=center;html=1;fontSize=12;fontStyle=0;aspect=fixed;shape=mxgraph.aws4.resourceIcon;resIcon=mxgraph.aws4.import_export;" vertex="1" parent="1">
          <mxGeometry x="160" y="185" width="60" height="60" as="geometry" />
        </mxCell>
        <mxCell id="E-yTpb4soP6AigzwNsI6-9" value="Server" style="text;html=1;align=center;verticalAlign=middle;whiteSpace=wrap;rounded=0;" vertex="1" parent="1">
          <mxGeometry x="50" y="260" width="60" height="30" as="geometry" />
        </mxCell>
        <mxCell id="E-yTpb4soP6AigzwNsI6-11" value="Role" style="sketch=0;outlineConnect=0;fontColor=#232F3E;gradientColor=none;strokeColor=#232F3E;fillColor=#ffffff;dashed=0;verticalLabelPosition=bottom;verticalAlign=top;align=center;html=1;fontSize=12;fontStyle=0;aspect=fixed;shape=mxgraph.aws4.resourceIcon;resIcon=mxgraph.aws4.role;" vertex="1" parent="1">
          <mxGeometry x="460" y="195" width="60" height="60" as="geometry" />
        </mxCell>
        <mxCell id="E-yTpb4soP6AigzwNsI6-12" value="Snapshot" style="sketch=0;outlineConnect=0;fontColor=#232F3E;gradientColor=none;strokeColor=#232F3E;fillColor=#ffffff;dashed=0;verticalLabelPosition=bottom;verticalAlign=top;align=center;html=1;fontSize=12;fontStyle=0;aspect=fixed;shape=mxgraph.aws4.resourceIcon;resIcon=mxgraph.aws4.snapshot;" vertex="1" parent="1">
          <mxGeometry x="580" y="195" width="60" height="60" as="geometry" />
        </mxCell>
        <mxCell id="E-yTpb4soP6AigzwNsI6-13" value="Bucket" style="sketch=0;outlineConnect=0;fontColor=#232F3E;gradientColor=none;strokeColor=#232F3E;fillColor=#ffffff;dashed=0;verticalLabelPosition=bottom;verticalAlign=top;align=center;html=1;fontSize=12;fontStyle=0;aspect=fixed;shape=mxgraph.aws4.resourceIcon;resIcon=mxgraph.aws4.bucket;" vertex="1" parent="1">
          <mxGeometry x="340" y="195" width="60" height="60" as="geometry" />
        </mxCell>
        <mxCell id="E-yTpb4soP6AigzwNsI6-14" value="Cloud servers" style="text;html=1;align=center;verticalAlign=middle;whiteSpace=wrap;rounded=0;" vertex="1" parent="1">
          <mxGeometry x="695" y="280" width="60" height="30" as="geometry" />
        </mxCell>
        <mxCell id="E-yTpb4soP6AigzwNsI6-16" value="" style="shape=flexArrow;endArrow=classic;html=1;rounded=0;" edge="1" parent="1" source="E-yTpb4soP6AigzwNsI6-13" target="E-yTpb4soP6AigzwNsI6-11">
          <mxGeometry width="50" height="50" relative="1" as="geometry">
            <mxPoint x="390" y="260" as="sourcePoint" />
            <mxPoint x="440" y="210" as="targetPoint" />
          </mxGeometry>
        </mxCell>
        <mxCell id="E-yTpb4soP6AigzwNsI6-17" value="" style="shape=flexArrow;endArrow=classic;html=1;rounded=0;" edge="1" parent="1">
          <mxGeometry width="50" height="50" relative="1" as="geometry">
            <mxPoint x="120" y="220" as="sourcePoint" />
            <mxPoint x="160" y="220" as="targetPoint" />
          </mxGeometry>
        </mxCell>
        <mxCell id="E-yTpb4soP6AigzwNsI6-18" value="" style="shape=flexArrow;endArrow=classic;html=1;rounded=0;exitX=1.044;exitY=0.694;exitDx=0;exitDy=0;exitPerimeter=0;" edge="1" parent="1" source="E-yTpb4soP6AigzwNsI6-5" target="E-yTpb4soP6AigzwNsI6-13">
          <mxGeometry width="50" height="50" relative="1" as="geometry">
            <mxPoint x="220" y="219.5" as="sourcePoint" />
            <mxPoint x="260" y="219.5" as="targetPoint" />
          </mxGeometry>
        </mxCell>
        <mxCell id="E-yTpb4soP6AigzwNsI6-19" value="" style="shape=flexArrow;endArrow=classic;html=1;rounded=0;" edge="1" parent="1">
          <mxGeometry width="50" height="50" relative="1" as="geometry">
            <mxPoint x="520" y="229.5" as="sourcePoint" />
            <mxPoint x="580" y="229.5" as="targetPoint" />
          </mxGeometry>
        </mxCell>
        <mxCell id="E-yTpb4soP6AigzwNsI6-21" value="" style="shape=flexArrow;endArrow=classic;html=1;rounded=0;" edge="1" parent="1" target="E-yTpb4soP6AigzwNsI6-3">
          <mxGeometry width="50" height="50" relative="1" as="geometry">
            <mxPoint x="640" y="230" as="sourcePoint" />
            <mxPoint x="690" y="229.5" as="targetPoint" />
          </mxGeometry>
        </mxCell>
      </root>
    </mxGraphModel>
  </diagram>
</mxfile>
